<svg width="341" height="303" viewBox="0 0 341 303" fill="none" xmlns="http://www.w3.org/2000/svg">
<path d="M170.237 181.624C187.028 181.624 200.64 168.012 200.64 151.22C200.64 134.429 187.028 120.817 170.237 120.817C153.446 120.817 139.833 134.429 139.833 151.22C139.833 168.012 153.446 181.624 170.237 181.624Z" fill="#00D8FF"/>
<path d="M170.25 220.911C127.552 220.911 90.2098 215.863 62.2611 206.317C23.8578 193.19 0 172.081 0 151.217C0 131.117 22.082 111.417 59.0701 98.5195C89.3976 87.9467 128.88 82.1224 170.247 82.1224H170.253C210.847 82.1224 249.808 87.8406 279.963 98.2225C317.869 111.271 340.5 131.08 340.5 151.217C340.5 172.114 315.811 193.275 276.066 206.438C247.893 215.769 210.314 220.911 170.25 220.911ZM170.25 96.6679C131.046 96.6679 92.2674 102.35 63.8581 112.253C29.7911 124.132 14.5456 140.38 14.5456 151.217C14.5456 162.496 30.9487 180.244 66.9611 192.55C93.4128 201.59 129.128 206.366 170.25 206.366C208.802 206.366 244.753 201.487 271.49 192.629C308.908 180.232 325.948 162.474 325.948 151.217C325.948 140.726 310.075 123.974 275.22 111.977C246.553 102.104 209.271 96.6679 170.25 96.6679Z" fill="#00D8FF"/>
<path d="M101.302 302.878C95.16 302.878 89.6387 301.56 84.9357 298.841C67.5234 288.814 61.49 259.844 68.7962 221.353C74.7841 189.81 89.4599 152.701 110.127 116.855H110.136C130.412 81.6944 154.827 50.8002 178.885 29.8607C209.127 3.54837 237.588 -6.16989 255.034 3.89382C273.14 14.3303 279.14 46.2881 270.689 87.2944C264.71 116.337 250.385 151.456 230.361 186.183C209.034 223.174 186.003 252.996 163.77 272.438C141.166 292.196 118.751 302.878 101.302 302.878ZM122.733 124.122C103.145 158.086 88.6993 194.513 83.0902 224.062C76.3598 259.511 82.8144 280.832 92.1994 286.241C101.984 291.893 125.539 286.547 154.197 261.487C175.242 243.09 197.221 214.535 217.761 178.922C237.031 145.507 250.767 111.922 256.44 84.3641C264.395 45.7547 257.522 22.1182 247.77 16.4939C238.679 11.2636 216.246 16.6363 188.433 40.8335C165.557 60.7397 142.224 90.3187 122.733 124.122Z" fill="#00D8FF"/>
<path d="M239.297 303.005C222.818 303.005 201.885 293.041 180.097 274.289C155.757 253.347 130.936 222.092 110.205 186.288C89.881 151.185 75.3082 114.606 69.1748 83.2816C61.4747 43.9329 67.2839 14.4205 84.7082 4.33861C102.787 -6.13116 133.475 4.63256 164.779 32.4328C186.97 52.1359 210.243 82.0816 230.312 116.755C251.71 153.697 266.049 188.543 271.785 217.519C279.673 257.331 273.349 288.556 255.294 299.008C250.664 301.689 245.273 303.005 239.297 303.005ZM122.793 179.007C142.436 212.931 166.782 243.643 189.582 263.265C216.93 286.801 238.631 291.877 248.009 286.42C257.77 280.771 264.91 257.68 257.516 220.343C252.085 192.916 238.328 159.619 217.73 124.043C198.415 90.6787 176.179 62.0057 155.121 43.3056C125.651 17.1357 101.733 11.2781 91.9962 16.9266C82.9173 22.1781 76.3718 44.3116 83.4507 80.4877C89.281 110.27 103.254 145.255 122.793 179.007Z" fill="#00D8FF"/>
</svg>
